<?xml version="1.0" standalone="no"?>
<!DOCTYPE svg PUBLIC "-//W3C//DTD SVG 20010904//EN"
 "http://www.w3.org/TR/2001/REC-SVG-20010904/DTD/svg10.dtd">
<svg version="1.0" xmlns="http://www.w3.org/2000/svg"
 width="1200.000000pt" height="600.000000pt" viewBox="0 0 1200.000000 600.000000"
 preserveAspectRatio="xMidYMid meet">

<g transform="translate(0.000000,600.000000) scale(0.100000,-0.100000)"
fill="#000000" stroke="none">
<path d="M5288 4428 l-3 -713 -712 -3 -713 -2 0 -30 0 -30 713 -2 712 -3 3
-677 2 -678 -715 0 -715 0 0 -35 0 -35 715 0 715 0 0 -680 0 -680 30 0 30 0 0
680 0 680 680 0 680 0 0 -680 0 -680 35 0 35 0 0 680 0 680 680 0 680 0 0 35
0 35 -680 0 -680 0 0 680 0 680 680 0 680 0 0 30 0 30 -680 0 -680 0 0 715 0
715 -35 0 -35 0 0 -715 0 -715 -677 2 -678 3 -3 713 -2 712 -30 0 -30 0 -2
-712z m1422 -1458 l0 -680 -680 0 -680 0 0 673 c0 371 3 677 7 680 3 4 309 7
680 7 l673 0 0 -680z"/>
<path d="M7569 4865 c-159 -42 -306 -185 -371 -361 -18 -48 -22 -81 -23 -174
0 -106 2 -119 28 -172 51 -104 143 -158 268 -158 165 0 289 120 289 280 0 112
-63 209 -157 241 -84 29 -198 12 -255 -39 -25 -21 -23 -1 6 56 46 91 176 189
274 208 24 5 32 11 27 22 -3 8 -10 34 -16 58 -6 25 -14 46 -18 48 -3 2 -27 -2
-52 -9z m-18 -482 c34 -21 59 -68 59 -116 0 -68 -75 -137 -148 -137 -47 0
-108 37 -127 76 -21 45 -20 126 3 147 53 48 157 63 213 30z"/>
<path d="M4465 4613 l-195 -258 2 -50 3 -50 182 -3 182 -2 3 -118 3 -117 70 0
70 0 3 118 3 117 69 0 70 0 0 65 0 65 -70 0 -70 0 0 245 0 245 -64 0 -65 0
-196 -257z m172 -230 c-3 -2 -48 -2 -102 -1 l-97 3 98 126 99 127 3 -125 c1
-69 1 -128 -1 -130z"/>
<path d="M5850 4640 l0 -220 83 0 c100 0 148 -13 189 -49 26 -23 32 -37 36
-82 4 -49 1 -59 -24 -88 -15 -19 -43 -40 -61 -47 -43 -18 -140 -18 -193 1 -23
8 -46 15 -50 15 -12 0 -52 -100 -46 -115 10 -27 107 -50 211 -50 94 0 105 2
168 33 105 52 157 137 157 255 0 144 -102 245 -257 255 l-73 5 0 83 0 84 150
0 150 0 0 70 0 70 -220 0 -220 0 0 -220z"/>
<path d="M4504 3409 c-99 -29 -174 -120 -174 -212 0 -65 23 -109 81 -160 l48
-41 -59 -53 c-71 -65 -95 -117 -88 -197 7 -79 41 -126 122 -166 187 -92 412
-11 448 161 15 78 -2 132 -61 190 -25 25 -55 51 -66 57 -18 10 -17 13 26 54
53 49 76 88 85 147 14 89 -56 185 -157 215 -57 17 -155 20 -205 5z m150 -133
c66 -27 86 -98 44 -152 -30 -38 -60 -63 -76 -64 -22 0 -93 40 -118 67 -44 48
-25 121 40 149 40 17 69 17 110 0z m-5 -381 c70 -41 96 -80 87 -130 -18 -93
-178 -125 -253 -49 -40 39 -44 85 -10 135 24 35 81 79 103 79 7 0 40 -16 73
-35z"/>
<path d="M7310 3304 c-69 -52 -129 -99 -134 -104 -5 -5 5 -27 25 -52 18 -24
34 -45 35 -46 2 -2 39 24 83 57 l81 62 0 -266 0 -265 -95 0 -95 0 0 -65 0 -65
260 0 260 0 0 65 0 65 -90 0 -90 0 0 355 0 355 -57 0 c-58 0 -59 -1 -183 -96z"/>
<path d="M7210 1945 l0 -64 150 -3 150 -3 -100 -122 c-89 -108 -100 -126 -100
-161 l0 -39 83 -6 c97 -7 129 -17 162 -53 50 -54 23 -149 -54 -188 -58 -29
-163 -26 -252 9 -13 5 -21 -5 -34 -47 -10 -29 -20 -58 -22 -65 -8 -22 104 -47
212 -48 89 0 107 3 160 28 119 56 169 129 170 247 0 62 -4 83 -25 120 -34 60
-91 99 -158 107 -29 3 -51 9 -50 14 2 4 47 58 101 119 l97 111 0 55 0 54 -245
0 -245 0 0 -65z"/>
<path d="M5930 1993 c-40 -8 -121 -43 -151 -64 l-28 -19 31 -55 32 -54 25 18
c104 72 243 43 270 -55 11 -43 -5 -112 -42 -173 -17 -30 -96 -121 -175 -202
l-143 -148 3 -53 3 -53 268 -3 267 -2 0 70 0 70 -169 0 -169 0 78 79 c159 161
230 277 238 390 8 117 -32 189 -130 231 -53 23 -156 34 -208 23z"/>
<path d="M4310 1910 l0 -70 195 0 c107 0 195 -4 195 -8 0 -4 -76 -162 -170
-351 -93 -188 -170 -345 -170 -347 0 -3 34 -4 76 -2 l76 3 174 360 c169 348
174 361 174 422 l0 63 -275 0 -275 0 0 -70z"/>
</g>
</svg>
