<?xml version="1.0" standalone="no"?>
<!DOCTYPE svg PUBLIC "-//W3C//DTD SVG 20010904//EN"
 "http://www.w3.org/TR/2001/REC-SVG-20010904/DTD/svg10.dtd">
<svg version="1.0" xmlns="http://www.w3.org/2000/svg"
 width="554.000000pt" height="554.000000pt" viewBox="0 0 554.000000 554.000000"
 preserveAspectRatio="xMidYMid meet">

<g transform="translate(0.000000,554.000000) scale(0.100000,-0.100000)"
fill="#000000" stroke="none">
<path d="M2048 4213 l-3 -738 -737 -3 c-730 -2 -738 -2 -738 -22 0 -20 7 -20
740 -20 l740 0 -2 -662 -3 -663 -737 -3 c-729 -2 -738 -2 -738 -22 0 -20 9
-20 738 -22 l737 -3 3 -738 c2 -729 2 -737 22 -737 20 0 20 7 20 740 l0 740
665 0 665 0 0 -740 c0 -733 0 -740 20 -740 20 0 20 7 20 740 l0 740 740 0
c733 0 740 0 740 20 0 20 -7 20 -740 20 l-740 0 0 665 0 665 740 0 c733 0 740
0 740 20 0 20 -7 20 -740 20 l-740 0 0 740 c0 733 0 740 -20 740 -20 0 -20 -7
-20 -740 l0 -740 -665 0 -665 0 0 740 c0 733 0 740 -20 740 -20 0 -20 -8 -22
-737z m1372 -1448 l0 -665 -665 0 -665 0 0 665 0 665 665 0 665 0 0 -665z"/>
<path d="M2655 4614 c-85 -30 -165 -130 -165 -206 0 -25 4 -28 34 -28 31 0 34
3 44 43 13 48 61 103 109 123 42 18 125 18 166 0 18 -7 47 -30 66 -49 62 -66
54 -162 -21 -260 -39 -50 -65 -78 -295 -320 -74 -76 -103 -114 -103 -132 l0
-24 280 -3 280 -3 0 32 0 33 -225 2 -225 3 153 160 c231 243 264 290 274 390
7 68 -10 118 -59 171 -70 76 -207 106 -313 68z"/>
<path d="M4078 4615 c-21 -8 -53 -26 -72 -40 -38 -29 -86 -114 -86 -152 0 -20
5 -23 40 -23 35 0 40 3 40 24 0 68 95 136 190 136 109 0 184 -65 184 -160 0
-101 -72 -159 -210 -168 -83 -5 -84 -5 -84 -32 l0 -27 96 -6 c160 -11 225 -57
232 -166 4 -72 -19 -116 -83 -156 -43 -27 -57 -30 -129 -30 -70 0 -87 4 -128
27 -49 29 -88 81 -88 117 0 18 -6 21 -41 21 l-42 0 6 -41 c7 -55 48 -114 103
-149 136 -86 352 -58 440 57 96 126 42 306 -104 343 l-51 13 48 22 c175 81
153 325 -35 389 -58 19 -174 20 -226 1z"/>
<path d="M1243 4542 l-112 -77 -1 -42 c0 -24 3 -43 6 -43 3 0 54 34 112 75
l107 75 3 -390 2 -390 40 0 40 0 0 435 0 435 -42 -1 c-37 0 -60 -11 -155 -77z"/>
<path d="M1259 3176 c-134 -48 -207 -162 -229 -359 -35 -303 98 -517 320 -517
113 0 221 66 266 165 27 57 32 160 12 227 -15 52 -87 131 -141 156 -127 60
-289 19 -361 -92 l-26 -40 0 50 c0 70 35 200 66 248 55 83 110 111 204 104 74
-5 127 -39 160 -102 23 -42 28 -46 63 -46 35 0 38 2 31 23 -27 87 -95 158
-175 181 -63 19 -141 20 -190 2z m154 -377 c47 -13 109 -67 132 -115 10 -21
17 -60 17 -94 0 -206 -249 -298 -384 -140 -145 169 17 410 235 349z"/>
<path d="M4155 3005 c-217 -316 -275 -413 -275 -456 l0 -39 220 0 220 0 0
-100 0 -100 40 0 40 0 0 100 0 100 65 0 65 0 0 35 0 35 -65 0 -65 0 0 300 0
300 -62 0 -63 -1 -120 -174z m162 -422 c-2 -2 -84 -2 -181 -1 l-176 3 128 190
c70 105 150 221 177 260 l50 70 3 -259 c1 -143 1 -261 -1 -263z"/>
<path d="M2657 1756 c-107 -30 -177 -112 -177 -208 0 -86 43 -152 120 -186
l35 -15 -35 -11 c-19 -6 -58 -33 -86 -61 -42 -41 -54 -59 -63 -102 -18 -89 9
-165 80 -227 101 -86 287 -97 410 -23 75 45 110 98 116 178 8 103 -38 182
-130 225 l-49 22 40 21 c120 61 147 210 56 311 -19 21 -56 48 -81 60 -59 27
-169 35 -236 16z m158 -67 c59 -16 95 -46 117 -97 24 -54 18 -98 -19 -143 -81
-96 -264 -90 -331 11 -34 50 -27 128 14 171 59 62 133 82 219 58z m62 -410
c107 -52 134 -174 57 -259 -49 -54 -105 -73 -196 -68 -131 7 -198 62 -206 166
-3 47 0 63 20 91 12 19 35 43 50 54 66 49 192 56 275 16z"/>
<path d="M4111 1760 c-89 -19 -165 -82 -204 -169 -28 -64 -27 -170 3 -239 83
-192 370 -219 489 -46 l34 49 -7 -78 c-21 -245 -143 -371 -310 -323 -55 16
-116 70 -131 115 -5 17 -14 21 -46 21 -37 0 -40 -2 -34 -22 13 -44 56 -108 88
-132 105 -81 288 -75 381 12 87 83 127 204 127 392 -1 207 -67 344 -197 401
-50 23 -135 31 -193 19z m185 -95 c74 -43 123 -145 109 -224 -21 -117 -120
-188 -246 -179 -165 12 -251 199 -157 338 66 97 193 124 294 65z"/>
<path d="M1050 1715 l0 -35 240 0 241 0 -202 -396 -201 -395 42 3 43 3 198
390 c152 298 199 399 199 428 l0 37 -280 0 -280 0 0 -35z"/>
</g>
</svg>
